<svg xmlns="http://www.w3.org/2000/svg" width="500.488" height="62.421" viewBox="0 0 197.19 24.594">
  <defs>
    <style>
      .cls-1 {
        fill: #2b3a3c;
        fill-rule: evenodd;
      }
    </style>
  </defs>
  <path id="Quotes.diarios" class="cls-1" d="M1063.16,69.4h-0.7l-10.71,12.135,10.71,12.247h0.7l3.86-4.334,2.96,3.439,2.21-2.684-2.91-3.411,4.51-5.257Zm3.78,14.651-3.14-3.663-2.37,2.544,3.27,3.8-1.87,2.237-6.32-7.409,6.32-7.353,6.23,7.353Zm21.94-14.092h-3.63v19.8h-7.41v-19.8h-3.63V93.225h14.67V69.962Zm11.8-.587h-0.7L1089.3,81.538l10.68,12.247h0.7l10.66-12.247Zm-0.33,19.6-6.29-7.409,6.29-7.381,6.26,7.381Zm22.25-19.013h-14.76V73.43h5.57v19.8h3.63V73.43h5.56V69.962Zm8.95-.643-12.83,12.135,13.11,12.386,2.38-3.1-8.92-7.661h8.05V79.721h-8.02l8.97-7.549Zm7.33,7.8,7.43-4.893-2.26-2.852-10.79,7.409,9.73,9.087-7.5,5.089,2.16,2.908,10.96-7.661Zm13.22,12.47h-3.63v3.635h3.63V89.59Zm2.1-20.187h-0.84V93.784h0.84l14.87-12.3Zm2.79,17.671V76l6.74,5.48Zm16.33-17.112h-3.69V93.225h3.69V69.962Zm10.26-.252h-0.84l-8.72,23.151,3.72,1.034,1.54-4.529h7.41l1.42,4.474,3.72-.951ZM1180.45,85.9l2.66-7.913,2.49,7.913h-5.15Zm21.25-1.65,5.96-4.25-14.54-10.6h-0.84l-0.03,23.85h3.64V88.472l2.88-2.153,6.65,7.521,2.71-2.321Zm-5.81.252V75.694l5.84,4.278Zm16.63-14.539h-3.69V93.225h3.69V69.962Zm12.08-.587h-0.7l-10.68,12.163,10.68,12.247h0.7l10.65-12.247Zm-0.34,19.6-6.29-7.409,6.29-7.381,6.27,7.381Zm14.93-11.855,7.44-4.893-2.26-2.852-10.8,7.409,9.74,9.087-7.5,5.089,2.15,2.908,10.97-7.661Z" transform="translate(-1051.75 -69.313)"/>
</svg>
